<?xml version="1.0" standalone="no"?>
<!DOCTYPE svg PUBLIC "-//W3C//DTD SVG 20010904//EN"
 "http://www.w3.org/TR/2001/REC-SVG-20010904/DTD/svg10.dtd">
<svg version="1.0" xmlns="http://www.w3.org/2000/svg"
 width="2658.000000pt" height="1695.000000pt" viewBox="0 0 2658.000000 1695.000000"
 preserveAspectRatio="xMidYMid meet">

<g transform="translate(0.000000,1695.000000) scale(0.100000,-0.100000)"
fill="#000000" stroke="none">
<path d="M5258 15020 c-939 -9 -1709 -18 -1712 -21 -9 -10 -67 -146 -80 -188
-7 -25 -56 -154 -108 -286 -52 -132 -123 -314 -158 -405 -35 -91 -114 -295
-177 -455 -63 -159 -137 -352 -165 -428 -27 -76 -65 -175 -84 -220 -44 -103
-144 -364 -144 -377 0 -6 -40 -106 -89 -223 -49 -116 -99 -244 -110 -282 -11
-39 -48 -136 -82 -215 -58 -140 -104 -258 -156 -405 -13 -38 -56 -147 -94
-240 -38 -94 -82 -208 -98 -255 -16 -47 -57 -155 -91 -240 -34 -85 -80 -200
-100 -255 -21 -55 -66 -172 -100 -260 -34 -88 -75 -197 -91 -242 -16 -45 -40
-110 -55 -145 -43 -102 -145 -369 -159 -418 -7 -25 -54 -144 -103 -265 -49
-121 -94 -238 -99 -260 -6 -22 -48 -129 -92 -239 -45 -109 -95 -239 -112 -290
-36 -107 -82 -226 -151 -391 -28 -66 -57 -144 -64 -174 -16 -59 -180 -469
-196 -488 -5 -7 -7 -16 -4 -21 3 -5 -9 -47 -28 -93 -122 -310 -157 -400 -173
-450 l-19 -56 546 -7 c706 -8 3544 -8 4259 1 l554 6 -7 536 c-4 295 -9 537
-10 539 -3 2 -2768 51 -2943 52 -35 0 -63 3 -63 8 0 4 42 39 94 77 258 193
434 338 429 351 -2 7 5 44 18 81 12 37 23 75 24 83 1 8 18 67 38 130 31 99 80
270 119 415 5 22 23 81 38 130 15 50 43 142 63 205 71 231 107 358 107 373 0
15 18 75 112 367 47 149 43 142 75 128 15 -6 43 -22 61 -35 17 -13 46 -29 64
-35 36 -13 185 -83 208 -98 25 -17 298 -150 307 -150 5 0 20 -8 33 -17 14 -10
94 -50 179 -91 85 -40 162 -79 170 -86 9 -7 68 -35 131 -62 63 -26 184 -83
268 -127 129 -66 156 -77 167 -66 7 8 22 52 34 99 12 47 31 110 42 140 12 30
34 108 49 172 16 64 34 125 39 135 5 10 17 45 26 78 8 33 29 101 44 150 16 50
39 124 51 165 11 41 28 95 36 120 8 25 30 101 49 170 42 157 79 284 111 380
25 74 80 262 110 370 14 51 13 74 -15 339 -16 156 -32 285 -34 288 -3 2 -548
-268 -1211 -601 -664 -334 -1209 -606 -1212 -606 -10 0 147 193 241 297 54 60
59 68 105 219 27 86 53 161 59 168 10 12 63 157 181 499 44 125 87 241 96 258
15 30 61 159 193 544 32 94 66 186 76 205 10 19 44 112 75 205 80 238 177 511
190 532 6 10 37 97 68 192 l57 175 70 12 c39 6 80 8 91 3 20 -7 158 2 304 20
36 5 76 5 90 1 14 -4 54 -4 90 1 36 4 175 13 310 19 135 6 252 13 260 15 8 2
99 6 201 9 102 3 218 10 257 16 43 6 81 6 95 1 12 -5 34 -7 48 -5 95 16 305
31 326 23 14 -5 28 -7 32 -4 13 7 281 29 333 27 36 -1 50 2 57 16 5 9 12 161
15 337 4 176 9 341 12 368 l6 47 -249 -1 c-136 -1 -1016 -9 -1955 -19z"/>
<path d="M8536 14969 c-11 -38 -39 -159 -67 -289 -128 -604 -153 -716 -168
-761 -6 -20 -22 -89 -36 -155 -13 -65 -42 -204 -65 -309 -23 -104 -55 -251
-71 -325 -15 -74 -47 -211 -69 -305 -22 -93 -54 -237 -71 -320 -17 -82 -33
-157 -36 -165 -3 -8 -21 -85 -39 -170 -18 -85 -49 -220 -68 -300 -18 -80 -46
-197 -60 -260 -14 -63 -33 -142 -41 -175 -8 -33 -28 -125 -44 -205 -16 -80
-34 -156 -39 -170 -5 -14 -20 -75 -32 -135 -11 -61 -27 -130 -35 -155 -8 -25
-26 -101 -40 -170 -14 -69 -31 -141 -37 -160 -6 -19 -24 -96 -39 -170 -53
-256 -96 -447 -103 -458 -3 -6 -22 -82 -42 -169 -19 -87 -51 -228 -71 -313
-19 -85 -48 -218 -64 -295 -16 -77 -34 -151 -39 -164 -6 -12 -22 -78 -36 -145
-14 -66 -36 -159 -49 -206 -13 -47 -31 -125 -40 -175 -9 -49 -23 -108 -30
-130 -8 -22 -21 -80 -30 -130 -9 -49 -24 -119 -35 -155 -10 -36 -31 -121 -45
-190 -14 -69 -32 -143 -40 -165 -8 -22 -26 -94 -39 -161 -14 -66 -29 -132 -34
-145 -5 -13 -19 -76 -31 -139 -12 -63 -31 -144 -41 -180 -34 -122 -50 -204
-41 -213 21 -21 4698 -24 4718 -3 4 3 7 30 9 59 1 29 7 71 13 93 6 23 13 71
15 107 2 36 7 71 11 77 4 6 8 36 11 68 2 31 9 77 14 102 6 24 12 74 14 111 2
37 7 72 11 79 4 6 9 35 11 63 7 86 13 130 24 182 6 27 8 56 5 63 -2 6 0 36 5
64 6 29 15 88 20 132 6 45 17 133 26 196 9 63 18 135 20 160 2 25 9 77 15 115
6 39 12 90 14 115 2 25 11 84 20 131 8 47 15 96 14 110 0 13 6 65 15 116 9 50
16 102 16 115 -1 33 8 96 20 145 5 24 10 57 9 75 -1 43 8 115 15 127 6 8 10
55 21 193 2 26 6 51 9 57 4 5 9 59 12 118 3 59 10 115 14 123 4 8 11 53 14
100 4 47 14 129 22 183 8 54 14 110 13 125 0 15 6 68 15 119 9 50 16 102 16
115 0 49 8 126 15 147 7 24 16 101 29 266 2 22 9 58 15 80 6 22 11 54 11 70 0
64 17 232 24 244 4 5 9 42 12 83 7 92 14 174 19 213 2 17 13 118 24 225 11
107 25 227 31 267 5 40 12 109 15 155 3 46 11 126 20 178 8 52 14 104 14 115
0 11 3 47 6 80 3 33 8 85 11 115 9 94 12 123 23 180 6 30 10 66 10 80 1 14 3
50 6 80 3 30 7 80 10 110 9 109 15 166 21 195 9 51 17 127 30 280 2 33 6 80 9
105 2 25 -28 253 -67 515 -38 259 -78 523 -87 587 -10 65 -19 120 -22 122 -2
2 -793 7 -1756 11 -1494 7 -1753 6 -1757 -6z m1375 -1904 c817 -17 1135 -28
1144 -36 5 -6 -22 -373 -90 -1189 -66 -792 -95 -1158 -130 -1625 -19 -258 -44
-580 -55 -715 -69 -838 -90 -1084 -94 -1088 -3 -2 -74 -8 -158 -12 -145 -7
-172 -12 -508 -93 -195 -47 -409 -97 -475 -111 -138 -29 -323 -72 -650 -150
-126 -30 -345 -80 -485 -110 -140 -31 -326 -74 -412 -95 -180 -43 -171 -47
-138 59 11 36 52 175 90 310 38 135 90 310 115 390 24 80 65 219 91 310 25 91
90 314 144 495 54 182 119 404 144 495 26 91 64 224 86 295 129 417 158 536
210 850 28 171 53 326 56 345 2 19 11 70 19 113 13 72 24 142 30 192 1 11 7
45 13 75 7 30 14 74 17 98 12 101 18 140 55 374 52 325 118 720 131 785 11 58
21 64 85 58 23 -3 368 -11 765 -20z"/>
<path d="M22035 14699 c-358 -8 -986 -21 -2023 -41 l-623 -12 5 -30 c3 -17 8
-42 11 -56 8 -42 45 -213 55 -250 4 -19 11 -55 15 -80 6 -41 24 -133 100 -500
13 -63 26 -126 29 -140 2 -14 14 -67 26 -119 11 -52 22 -106 24 -120 2 -14 9
-46 14 -71 6 -25 13 -58 16 -75 27 -153 80 -435 101 -540 15 -71 28 -139 30
-150 2 -11 9 -47 15 -80 7 -33 14 -69 15 -80 6 -33 31 -163 53 -270 24 -116
43 -220 72 -395 11 -69 27 -159 35 -200 23 -126 47 -254 50 -275 2 -11 11 -60
20 -110 9 -49 18 -99 20 -110 2 -11 8 -42 14 -70 6 -27 20 -104 32 -170 11
-66 22 -129 24 -140 3 -11 14 -83 25 -160 11 -77 22 -147 25 -156 3 -8 7 -33
10 -55 2 -21 11 -77 20 -124 9 -47 18 -96 20 -110 2 -14 9 -50 15 -80 6 -30
13 -73 16 -95 3 -22 7 -49 8 -60 2 -11 11 -60 20 -110 10 -49 19 -101 21 -115
2 -14 11 -68 20 -120 9 -52 19 -107 21 -122 8 -57 13 -85 28 -178 9 -52 19
-122 22 -155 3 -33 11 -89 19 -125 7 -36 13 -72 13 -80 1 -21 8 -64 32 -215
12 -71 23 -141 25 -155 2 -14 6 -41 9 -60 2 -19 14 -91 25 -160 12 -69 23
-138 25 -155 3 -16 16 -106 31 -200 14 -93 28 -186 31 -205 3 -19 7 -46 9 -60
2 -14 13 -97 24 -185 11 -88 23 -178 26 -200 7 -43 12 -79 19 -138 2 -21 7
-50 10 -65 3 -15 8 -49 11 -77 2 -27 9 -74 15 -104 5 -29 10 -55 10 -56 0 -15
4435 -22 5231 -9 l387 7 -10 36 c-6 20 -14 41 -19 47 -6 7 -9 16 -7 20 1 5 -6
24 -16 42 -9 19 -15 40 -13 47 3 7 1 17 -4 22 -11 11 -49 108 -54 138 -1 11
-10 36 -19 56 -15 35 -51 138 -117 332 -16 49 -38 106 -49 128 -11 21 -19 42
-18 46 1 5 -10 40 -26 80 -15 40 -27 74 -25 75 1 2 -8 22 -20 46 -12 23 -19
42 -17 42 4 0 -42 135 -72 210 -5 14 -17 50 -27 80 -10 30 -23 64 -29 75 -6
11 -11 25 -11 30 -1 6 -9 24 -18 42 -10 18 -16 36 -15 40 1 4 -6 22 -15 40 -9
18 -17 38 -17 46 0 7 -12 42 -26 78 -14 35 -27 71 -29 79 -2 8 -14 40 -25 70
-12 30 -32 87 -45 125 -13 39 -40 111 -60 160 -20 50 -40 101 -45 115 -5 14
-18 50 -30 80 -12 30 -32 87 -45 125 -25 72 -69 192 -103 280 -11 28 -39 102
-63 165 -39 106 -338 706 -1986 3993 l-496 987 -221 -2 c-121 0 -374 -5 -561
-9z m-299 -659 c317 -11 580 -22 582 -25 7 -7 26 -60 62 -170 15 -49 38 -117
50 -150 12 -33 23 -64 24 -70 1 -5 14 -44 30 -85 15 -41 33 -91 40 -110 20
-52 53 -153 87 -260 16 -52 45 -140 65 -195 19 -55 37 -109 39 -119 3 -11 16
-51 31 -90 14 -39 31 -84 38 -101 6 -16 11 -32 11 -35 3 -23 174 -542 185
-562 6 -10 10 -24 10 -33 0 -8 6 -29 14 -47 15 -34 72 -215 102 -323 9 -33 20
-67 25 -75 4 -8 26 -71 48 -140 39 -122 54 -167 74 -222 5 -15 9 -31 9 -35 0
-4 6 -24 13 -43 8 -19 26 -75 40 -125 38 -129 134 -434 150 -475 7 -19 18 -55
25 -80 7 -25 17 -56 22 -70 14 -34 26 -72 49 -160 11 -41 29 -100 39 -130 9
-30 34 -109 55 -175 20 -66 43 -138 52 -160 8 -22 14 -41 14 -43 -1 -1 12 -46
29 -100 53 -166 69 -240 53 -246 -10 -4 -11 -10 -3 -25 5 -11 7 -22 3 -24 -15
-9 -291 -117 -498 -195 -115 -44 -286 -109 -380 -145 -264 -103 -517 -200
-785 -302 -135 -51 -297 -113 -360 -138 l-115 -45 -2 47 c-2 43 -26 1758 -39
2846 -7 566 0 505 -110 970 -31 132 -58 249 -60 260 -2 11 -10 49 -19 85 -22
87 -21 82 -44 190 -11 52 -25 110 -30 129 -6 19 -8 38 -5 43 3 5 1 14 -4 21
-5 7 -13 28 -17 47 -3 19 -29 125 -57 235 -27 110 -51 209 -53 220 -1 11 -5
27 -8 35 -3 8 -15 56 -27 105 -11 50 -25 104 -29 120 -5 17 -17 65 -26 109
-14 64 -15 80 -4 87 7 4 16 6 20 3 4 -2 267 -13 585 -24z"/>
<path d="M13498 14651 c-1 -3 -2 -24 -3 -46 -1 -22 -5 -85 -8 -140 -31 -506
-40 -654 -40 -680 0 -34 -10 -186 -33 -490 -17 -218 -17 -227 -13 -260 1 -11
-4 -67 -11 -125 -7 -58 -12 -111 -11 -117 1 -7 2 -23 3 -35 2 -31 -21 -218
-28 -229 -3 -5 -1 -17 5 -26 5 -11 6 -38 0 -68 -4 -28 -17 -171 -29 -320 -22
-303 -45 -581 -61 -760 -5 -66 -12 -158 -13 -205 -4 -88 -22 -315 -57 -690
-11 -118 -24 -276 -29 -350 -5 -74 -21 -236 -34 -360 -14 -124 -27 -268 -31
-320 -3 -52 -22 -241 -40 -420 -19 -179 -46 -444 -60 -590 -38 -389 -169
-1627 -178 -1674 -3 -19 734 -23 3648 -23 1507 0 2776 1 2820 1 44 1 187 2
319 4 l239 2 -7 33 c-19 88 -111 600 -146 807 -21 129 -59 345 -84 480 -89
481 -126 689 -176 989 -29 167 -55 312 -58 321 -6 15 -36 6 -242 -76 -129 -51
-334 -131 -455 -177 -266 -103 -429 -166 -680 -265 -104 -41 -282 -109 -395
-152 -113 -43 -286 -110 -385 -150 -99 -40 -218 -86 -265 -102 -47 -17 -175
-66 -285 -110 -110 -44 -270 -106 -355 -138 -85 -32 -229 -88 -320 -125 -91
-37 -212 -84 -270 -105 -58 -21 -204 -77 -325 -125 -273 -109 -507 -196 -512
-191 -3 3 73 108 338 469 137 187 168 231 169 239 0 3 -13 1 -30 -5 -16 -6
-32 -8 -35 -5 -8 8 -8 60 0 123 10 78 24 228 30 315 2 30 6 82 9 115 3 33 8
92 11 130 3 39 10 115 15 170 5 55 12 134 15 175 4 41 8 98 11 125 5 55 11
131 20 245 3 41 7 93 9 115 2 22 7 78 10 125 3 47 8 110 11 140 2 30 7 89 9
130 10 142 13 168 20 180 4 6 3 16 -3 22 -6 6 -7 22 -1 41 5 18 8 46 8 62 0
17 2 66 6 110 3 44 8 112 11 150 8 129 12 180 14 180 1 0 3 35 5 77 1 42 6 81
9 87 4 5 2 12 -3 15 -6 4 -6 20 1 42 5 20 7 46 4 59 -3 12 -3 25 1 28 3 4 8
53 10 109 3 57 7 137 9 178 6 97 13 243 20 400 5 123 3 133 -85 635 -49 281
-99 571 -111 645 -57 357 -225 1319 -232 1325 -2 2 -325 15 -718 29 -969 34
-950 34 -952 27z"/>
<path d="M10959 5153 c-33 -86 -129 -399 -153 -503 -2 -8 -23 -87 -45 -175
l-42 -160 59 -55 c33 -30 85 -73 116 -95 31 -22 98 -74 149 -115 51 -41 121
-97 156 -125 34 -27 115 -95 180 -150 64 -55 135 -115 158 -133 39 -30 41 -35
32 -60 -6 -15 -12 -34 -14 -42 -2 -8 -15 -58 -29 -110 -122 -451 -197 -792
-222 -1000 -2 -19 -6 -51 -9 -70 -6 -37 -9 -57 -20 -156 -7 -60 -6 -63 33
-120 22 -33 57 -77 77 -99 20 -22 47 -56 60 -75 13 -19 35 -48 48 -65 l25 -30
750 0 c413 0 753 3 757 7 4 4 -1 101 -12 215 l-20 209 -45 99 c-49 107 -171
366 -301 640 -44 94 -109 232 -143 309 l-63 138 56 51 c53 49 233 276 233 295
0 5 29 42 64 83 35 41 68 84 73 94 6 11 50 138 98 282 l87 263 -68 92 c-37 51
-108 148 -158 214 -50 67 -124 167 -165 222 l-74 100 -66 6 c-36 3 -181 8
-321 11 -354 8 -906 23 -1082 31 l-148 6 -11 -29z m1391 -375 c69 -37 133 -73
143 -80 18 -13 11 -30 -122 -295 -119 -236 -144 -293 -154 -353 l-12 -73 -125
-58 c-69 -32 -130 -58 -137 -58 -6 -1 -49 40 -95 91 -46 50 -134 145 -195 210
-62 65 -113 125 -113 133 0 8 9 38 20 66 19 48 20 53 4 70 -18 20 -13 38 41
154 13 28 44 95 68 150 34 77 50 101 68 107 13 4 128 6 254 5 l230 -2 125 -67z
m41 -1575 c5 -5 40 -148 79 -318 39 -171 82 -357 96 -415 13 -58 26 -112 27
-120 1 -11 -13 -16 -58 -22 -33 -4 -106 -20 -161 -37 -139 -42 -615 -171 -629
-171 -12 0 41 214 188 755 42 154 78 292 82 307 4 24 11 27 53 31 71 7 314 -1
323 -10z"/>
<path d="M17689 5058 c-57 -50 -107 -97 -111 -103 -4 -7 -44 -48 -89 -91 -175
-169 -618 -618 -694 -703 -44 -49 -89 -94 -100 -101 -22 -13 -109 -119 -103
-125 7 -7 143 -26 248 -35 58 -5 160 -17 227 -26 143 -20 120 -29 282 105 179
148 188 155 242 198 207 164 293 232 331 260 24 17 63 50 88 73 25 23 81 65
125 94 44 30 89 62 100 73 43 40 188 145 233 169 l48 25 276 -25 c152 -15 285
-26 295 -27 15 0 14 -3 -7 -17 -13 -9 -32 -25 -42 -34 -9 -10 -88 -71 -175
-137 -87 -65 -187 -142 -223 -170 -36 -29 -97 -76 -136 -106 -40 -30 -119 -94
-177 -142 -58 -48 -126 -104 -152 -123 -26 -19 -59 -46 -75 -60 -15 -14 -72
-61 -126 -105 -54 -44 -129 -107 -168 -140 -38 -33 -99 -85 -135 -115 -266
-220 -675 -588 -989 -888 -300 -288 -921 -929 -922 -953 0 -17 1013 -25 1517
-12 l262 6 58 56 c62 59 61 58 169 341 24 63 44 118 44 123 0 5 -10 7 -22 3
-61 -16 -525 -122 -688 -156 -102 -21 -295 -64 -429 -95 -134 -30 -248 -54
-253 -53 -5 2 71 76 169 164 98 88 249 225 336 305 87 79 184 166 215 192 32
27 91 81 132 121 41 40 107 99 145 131 39 32 106 93 151 134 45 42 139 129
210 193 71 64 174 158 229 208 55 51 125 113 155 138 30 25 91 80 135 122 44
41 164 150 265 241 102 91 351 316 554 500 203 184 408 368 455 410 47 41 92
83 99 92 18 22 53 18 -688 72 -440 31 -645 47 -887 65 -139 11 -263 20 -276
20 -16 0 -59 -30 -128 -92z"/>
<path d="M13984 4826 c2 -135 6 -249 9 -253 7 -6 351 -37 597 -53 209 -14 826
-69 863 -78 l27 -7 -55 -70 c-30 -39 -76 -97 -102 -130 -26 -33 -70 -89 -99
-125 -28 -36 -72 -96 -98 -133 -25 -38 -53 -76 -62 -84 -8 -9 -23 -28 -32 -42
-9 -14 -22 -30 -29 -34 -7 -4 -22 -25 -33 -45 -22 -41 -102 -156 -130 -187
-27 -31 -191 -269 -203 -295 -3 -8 -29 -46 -56 -85 -27 -38 -69 -101 -92 -140
-38 -63 -83 -135 -109 -175 -29 -43 -90 -143 -135 -220 -11 -19 -28 -46 -36
-60 -22 -34 -125 -213 -177 -308 -24 -42 -67 -127 -97 -189 -30 -61 -78 -150
-105 -198 -28 -48 -49 -90 -46 -92 8 -9 586 -14 694 -6 107 8 114 9 127 33 8
14 46 86 86 160 40 74 94 169 120 211 26 41 61 102 78 135 17 32 51 91 76 129
25 39 54 86 65 105 11 19 34 55 50 80 16 25 35 56 42 70 10 20 108 171 171
265 8 11 65 99 127 195 62 96 125 191 140 210 15 19 38 53 50 75 12 22 39 63
61 91 38 50 135 244 202 405 19 46 65 147 102 224 36 77 93 201 125 275 32 74
86 194 120 265 72 150 132 287 128 290 -2 2 -343 8 -758 14 -415 6 -947 14
-1182 17 l-426 7 2 -247z"/>
<path d="M7396 4938 c-10 -75 -26 -249 -32 -358 -6 -125 -6 -530 1 -650 10
-171 14 -227 24 -300 5 -41 9 -77 9 -80 -5 -53 14 -73 148 -150 199 -116 584
-359 679 -429 22 -17 48 -33 58 -37 21 -8 21 1 2 166 l-15 124 55 476 c30 261
57 510 61 553 4 43 10 79 13 82 4 2 22 -41 40 -96 28 -86 35 -98 45 -83 11 15
15 13 34 -20 12 -21 22 -42 22 -48 0 -6 16 -39 35 -74 19 -34 35 -68 35 -75 0
-7 13 -33 29 -58 16 -25 32 -57 36 -71 4 -14 56 -124 115 -245 59 -121 135
-278 169 -350 34 -71 82 -168 106 -215 24 -47 55 -107 69 -135 13 -27 63 -129
112 -225 224 -448 226 -454 204 -462 -10 -4 -202 -12 -427 -18 -550 -16 -658
-22 -658 -37 0 -12 25 -42 217 -254 l88 -97 467 -7 c435 -7 1786 5 1797 16 3
2 17 63 32 134 15 72 29 140 31 151 5 22 4 22 -304 28 -169 4 -402 10 -517 14
l-209 7 -54 140 c-76 197 -292 745 -380 965 -41 102 -99 248 -128 325 -29 77
-102 264 -162 415 -157 395 -226 568 -314 795 l-77 200 -69 6 c-37 4 -363 10
-724 14 l-656 7 -7 -44z"/>
</g>
</svg>
